<svg width="68" height="72" viewBox="0 0 68 72" fill="none" xmlns="http://www.w3.org/2000/svg">
<path fill-rule="evenodd" clip-rule="evenodd" d="M31.6357 4.60393C31.6161 4.61574 31.5962 4.62725 31.576 4.63845L22.37 9.75098L49.75 24.9621L61.383 18.4993L36.4275 4.63846C35.6849 4.22609 34.8494 4.00964 34 4.00964C33.1746 4.00964 32.3624 4.21398 31.6357 4.60393ZM63.5 21.899L51.75 28.4268V39.5C51.75 40.6046 50.8546 41.5 49.75 41.5C48.6454 41.5 47.75 40.6046 47.75 39.5V30.649L36 37.1768V67.5764C36.1454 67.5129 36.2881 67.4424 36.4275 67.365L60.927 53.7503C61.7065 53.3174 62.3565 52.6837 62.8088 51.9153C63.2611 51.1471 63.4997 50.2719 63.5 49.3805V21.899ZM32 67.5764V37.1768L4.5 21.8991V49.3833C4.50079 50.2742 4.73962 51.1487 5.19179 51.9164C5.64408 52.6843 6.29338 53.3173 7.0725 53.75L31.5725 67.365C31.7119 67.4424 31.8546 67.5129 32 67.5764ZM6.61706 18.4994L34 33.7121L45.6318 27.25L18.251 12.0385L6.61706 18.4994ZM29.5589 1.18319L17.344 7.96677C17.2991 7.98951 17.255 8.01398 17.2118 8.04014L3.327 15.7511C2.47008 16.2276 1.75613 16.9245 1.25908 17.7697C0.762048 18.6149 0.499974 19.5776 0.5 20.5581V49.3855C0.501183 50.9896 0.931089 52.5643 1.74522 53.9465C2.55935 55.3287 3.7281 56.4682 5.1305 57.247L29.6305 70.862C30.9672 71.6043 32.471 71.9938 34 71.9938C35.529 71.9938 37.0333 71.604 38.37 70.8617L62.8695 57.247C64.2726 56.4678 65.4418 55.3276 66.2559 53.9445C67.0701 52.5615 67.4996 50.9854 67.5 49.3805V20.5581C67.5 19.5776 67.238 18.6149 66.7409 17.7697C66.2439 16.9245 65.5299 16.2276 64.673 15.7511L38.3695 1.14151C37.0328 0.399184 35.529 0.00964355 34 0.00964355C32.471 0.00964355 30.9672 0.399184 29.6305 1.14151C29.6063 1.15497 29.5824 1.16886 29.5589 1.18319ZM11.253 36.1743C11.7907 35.2095 13.0088 34.8633 13.9737 35.401L24.4737 41.253C25.4385 41.7907 25.7847 43.0088 25.247 43.9737C24.7093 44.9385 23.4912 45.2847 22.5263 44.747L12.0263 38.895C11.0615 38.3573 10.7153 37.1392 11.253 36.1743Z" fill="url(#paint0_linear_34_71)"/>
<defs>
<linearGradient id="paint0_linear_34_71" x1="0.5" y1="36.0017" x2="67.5" y2="36.0017" gradientUnits="userSpaceOnUse">
<stop stop-color="#2AF598"/>
<stop offset="1" stop-color="#009EFD"/>
</linearGradient>
</defs>
</svg>
