<svg width="50" height="62" viewBox="0 0 50 62" fill="none" xmlns="http://www.w3.org/2000/svg">
<path fill-rule="evenodd" clip-rule="evenodd" d="M25 0.666626C25.556 0.666626 26.087 0.898133 26.4654 1.30558L34.7019 10.1739C34.9238 10.413 35.1479 10.6541 35.3729 10.8961C38.5337 14.2965 41.9656 17.9887 44.6461 21.9979C47.534 26.3172 49.6666 31.1683 49.6666 36.6666C49.6666 43.2086 47.0678 49.4827 42.4419 54.1086C37.8161 58.7345 31.542 61.3333 25 61.3333C18.458 61.3333 12.1839 58.7345 7.55801 54.1086C2.93212 49.4827 0.333313 43.2086 0.333313 36.6666C0.333313 31.167 2.46589 26.3153 5.35383 21.9958C8.03601 17.984 11.4705 14.2905 14.633 10.8895C14.856 10.6496 15.0777 10.4112 15.2977 10.1743L23.5345 1.30558C23.9129 0.898133 24.4439 0.666626 25 0.666626ZM25 5.60554L18.2293 12.8957C18.2291 12.8958 18.2294 12.8956 18.2293 12.8957C18.0248 13.1159 17.8199 13.3364 17.6152 13.5566C14.4021 17.0135 11.1757 20.4847 8.67909 24.219C6.0399 28.1664 4.33331 32.2439 4.33331 36.6666C4.33331 42.1478 6.51069 47.4044 10.3864 51.2802C14.2622 55.1559 19.5188 57.3333 25 57.3333C30.4811 57.3333 35.7378 55.1559 39.6135 51.2802C43.4893 47.4044 45.6666 42.1478 45.6666 36.6666C45.6666 32.2454 43.9601 28.1687 41.3209 24.2211C38.8258 20.4892 35.6019 17.0194 32.3908 13.5634C32.1839 13.3407 31.9771 13.118 31.7704 12.8954L25 5.60554Z" fill="url(#paint0_linear_18_57)"/>
<defs>
<linearGradient id="paint0_linear_18_57" x1="0.333313" y1="31" x2="49.6666" y2="31" gradientUnits="userSpaceOnUse">
<stop stop-color="#2AF598"/>
<stop offset="1" stop-color="#009EFD"/>
</linearGradient>
</defs>
</svg>
