<svg width="56" height="59" viewBox="0 0 56 59" fill="none" xmlns="http://www.w3.org/2000/svg">
<path fill-rule="evenodd" clip-rule="evenodd" d="M47.0517 5.04217C43.399 5.29408 39.1162 6.29354 35.8641 9.08105C32.6453 11.84 31.7594 14.9951 31.6464 17.4815C31.589 18.7431 31.7328 19.8369 31.8904 20.6106C31.8926 20.6214 31.8948 20.6322 31.8971 20.643C32.0091 20.6549 32.128 20.6668 32.2533 20.6782C33.2661 20.7702 34.6784 20.8314 36.2685 20.709C39.4901 20.4612 43.1887 19.4829 45.8983 16.7733C48.7693 13.9023 50.2255 10.5304 50.9611 7.83317C51.2514 6.76857 51.4261 5.82096 51.5311 5.06931C50.3985 4.97823 48.8288 4.91961 47.0517 5.04217ZM53.6875 3.31253C55.6875 3.31253 55.6875 3.3133 55.6875 3.3141L55.6875 3.31997L55.6874 3.33055L55.6872 3.36101C55.6869 3.38541 55.6863 3.41796 55.6853 3.45831C55.6834 3.53901 55.6796 3.65105 55.6725 3.79178C55.6582 4.0731 55.6302 4.46998 55.5757 4.96113C55.4667 5.94188 55.2505 7.30778 54.8202 8.88564C53.962 12.0321 52.2307 16.0978 48.7267 19.6017C45.0613 23.2671 40.2599 24.4138 36.5753 24.6973C34.7122 24.8406 33.0699 24.7689 31.8912 24.6617C31.3001 24.608 30.821 24.5449 30.4835 24.4941C30.3146 24.4686 30.1808 24.4462 30.0858 24.4294C30.0383 24.421 30.0004 24.414 29.9727 24.4088L29.9387 24.4023L29.9275 24.4001L29.9234 24.3993L29.9217 24.399C29.921 24.3988 29.9203 24.3987 30.3125 22.4375C29.3894 22.7837 28.9212 22.959 28.6838 23.0476C28.6838 23.0478 28.6838 23.0474 28.6838 23.0476L30.3125 22.4375L29.9203 24.3987C29.4375 24.3021 29.0146 24.0329 28.7234 23.652C28.7238 23.6596 28.7242 23.6672 28.7245 23.6748C28.7416 24.0505 28.7451 24.4143 28.7381 24.7643C29.5749 25.0034 30.1875 25.7739 30.1875 26.6875C30.1875 29.5317 29.3866 32.7902 28.6084 35.3125H40.9375C41.9566 35.3125 42.8127 36.0788 42.9253 37.0917L40.9375 37.3125C42.9253 37.0917 42.9254 37.0925 42.9255 37.0935L42.9264 37.1016L42.9282 37.1185L42.9336 37.173C42.9381 37.2183 42.9439 37.2814 42.9506 37.3612C42.9639 37.5208 42.9804 37.7473 42.995 38.0313C43.0243 38.5985 43.0463 39.3991 43.0197 40.3563C42.9669 42.2579 42.7207 44.8406 41.9205 47.4595C41.1211 50.0757 39.7344 52.8378 37.3264 54.9521C34.8821 57.0983 31.5429 58.4375 27.125 58.4375C22.7071 58.4375 19.3679 57.0983 16.9236 54.9521C14.5156 52.8378 13.1289 50.0757 12.3295 47.4595C11.5293 44.8406 11.2831 42.2579 11.2303 40.3563C11.2037 39.3991 11.2257 38.5985 11.255 38.0313C11.2696 37.7473 11.2861 37.5208 11.2994 37.3612C11.3061 37.2814 11.3119 37.2183 11.3164 37.173L11.3219 37.1185L11.3236 37.1016L11.3243 37.0957L11.3245 37.0935C11.3246 37.0925 11.3247 37.0917 13.3125 37.3125L11.3247 37.0917C11.4373 36.0788 12.2934 35.3125 13.3125 35.3125H24.4067C24.4991 35.0367 24.5928 34.7493 24.6866 34.4525C25.0406 33.3315 25.381 32.1158 25.6479 30.9043C25.3372 30.9473 24.9445 30.9949 24.4838 31.0367C23.3051 31.1439 21.6628 31.2156 19.7997 31.0723C16.1151 30.7888 11.3137 29.6421 7.64829 25.9767C4.14432 22.4728 2.41298 18.4071 1.55485 15.2606C1.12452 13.6828 0.908314 12.3169 0.799342 11.3361C0.744769 10.845 0.716836 10.4481 0.702532 10.1668C0.695376 10.0261 0.691619 9.91401 0.689651 9.83331C0.688667 9.79296 0.688129 9.76041 0.687837 9.73601L0.687559 9.70555L0.687512 9.69497L0.687503 9.69086L0.687501 9.6891C0.6875 9.6883 0.6875 9.68753 2.6875 9.68753C2.32973 7.71979 2.33039 7.71967 2.33109 7.71954L2.33681 7.71852L2.34819 7.71649L2.38364 7.71033C2.41287 7.70533 2.45319 7.69858 2.50413 7.69042C2.60599 7.67409 2.75041 7.6521 2.93345 7.62709C3.29931 7.5771 3.82074 7.51487 4.46605 7.46183C5.75376 7.35599 7.55052 7.2854 9.59854 7.42665C13.649 7.70599 18.9287 8.83152 23.1141 12.419C25.3951 14.3742 26.805 16.5241 27.6431 18.6173C27.6289 18.1982 27.6297 17.7578 27.6505 17.2998C27.8031 13.9424 29.0422 9.66009 33.2609 6.04402C37.4463 2.45652 42.726 1.33099 46.7765 1.05165C48.8245 0.910405 50.6212 0.980994 51.9089 1.08683C52.5543 1.13987 53.0757 1.2021 53.4416 1.25209C53.6246 1.2771 53.769 1.29909 53.8709 1.31542C53.9218 1.32358 53.9621 1.33033 53.9914 1.33533L54.0268 1.34149L54.0382 1.34352L54.0439 1.34455C54.0446 1.34467 54.0453 1.34479 53.6875 3.31253ZM2.6875 9.68753L2.32973 7.71979C1.37875 7.8927 0.6875 8.72096 0.6875 9.68753H2.6875ZM4.84392 11.4443C4.94886 12.196 5.12355 13.1436 5.4139 14.2082C6.14952 16.9054 7.60568 20.2773 10.4767 23.1483C13.1863 25.8579 16.8849 26.8362 20.1065 27.084C21.6966 27.2064 23.1089 27.1452 24.1217 27.0532C24.247 27.0418 24.3659 27.0299 24.4779 27.018C24.4802 27.0072 24.4824 26.9964 24.4846 26.9856C24.6422 26.2119 24.786 25.1181 24.7286 23.8565C24.6156 21.3701 23.7297 18.215 20.5109 15.456C17.2588 12.6685 12.976 11.6691 9.32333 11.4172C7.5462 11.2946 5.97645 11.3532 4.84392 11.4443ZM23.0034 39.3125H15.219C15.217 39.5974 15.2194 39.9099 15.2287 40.2453C15.2755 41.9296 15.4942 44.1282 16.1549 46.2906C16.8164 48.4556 17.8868 50.4748 19.5628 51.9464C21.2025 53.3861 23.5741 54.4375 27.125 54.4375C30.6759 54.4375 33.0475 53.3861 34.6872 51.9464C36.3632 50.4748 37.4336 48.4556 38.0951 46.2906C38.7558 44.1282 38.9745 41.9296 39.0213 40.2453C39.0306 39.9099 39.033 39.5974 39.031 39.3125H27.2088C27.1222 39.5332 27.0478 39.7183 26.9889 39.8627C26.9429 39.9756 26.9063 40.0638 26.8807 40.125L26.8507 40.1963L26.8422 40.2162L26.8397 40.2221L26.8388 40.2241C26.8387 40.2244 26.8383 40.2254 25 39.4375L26.8383 40.2254C26.4032 41.2406 25.2274 41.7109 24.2122 41.2758C23.4135 40.9335 22.952 40.1328 23.0034 39.3125ZM53.6875 3.31253L54.0453 1.34479C54.9963 1.5177 55.6875 2.34596 55.6875 3.31253H53.6875ZM3.04245 11.6558C3.04231 11.6558 3.04235 11.6558 3.04245 11.6558Z" fill="url(#paint0_linear_18_58)"/>
<defs>
<linearGradient id="paint0_linear_18_58" x1="0.6875" y1="29.705" x2="55.6875" y2="29.705" gradientUnits="userSpaceOnUse">
<stop stop-color="#2AF598"/>
<stop offset="1" stop-color="#009EFD"/>
</linearGradient>
</defs>
</svg>
