<svg width="23" height="23" viewBox="0 0 23 23" fill="none" xmlns="http://www.w3.org/2000/svg">
<path fill-rule="evenodd" clip-rule="evenodd" d="M6.56174 1.44177C7.73709 0.954921 8.99682 0.704346 10.269 0.704346C11.5412 0.704346 12.8009 0.954921 13.9763 1.44177C15.1516 1.92861 16.2196 2.64219 17.1191 3.54176C18.0187 4.44134 18.7323 5.50928 19.2191 6.68463C19.706 7.85998 19.9566 9.11971 19.9566 10.3919C19.9566 11.6641 19.706 12.9238 19.2191 14.0992C18.9249 14.8094 18.548 15.4804 18.0972 16.0988L21.856 19.8576C22.4418 20.4433 22.4418 21.3931 21.856 21.9789C21.2702 22.5647 20.3204 22.5647 19.7347 21.9789L15.9759 18.2201C14.3288 19.4209 12.3329 20.0794 10.269 20.0794C7.69971 20.0794 5.23564 19.0588 3.41887 17.242C1.6021 15.4253 0.581451 12.9612 0.581451 10.3919C0.581451 7.8226 1.6021 5.35853 3.41887 3.54176C4.31844 2.64219 5.38639 1.92861 6.56174 1.44177ZM14.9978 15.1207C15.6188 14.4997 16.1114 13.7625 16.4475 12.9511C16.7836 12.1397 16.9566 11.2701 16.9566 10.3919C16.9566 9.51367 16.7836 8.64405 16.4475 7.83268C16.1114 7.02131 15.6188 6.28408 14.9978 5.66308C14.3768 5.04209 13.6396 4.54949 12.8282 4.21341C12.0168 3.87732 11.1472 3.70435 10.269 3.70435C9.39078 3.70435 8.52116 3.87732 7.70979 4.21341C6.89842 4.54949 6.16119 5.04209 5.54019 5.66308C4.28603 6.91724 3.58145 8.61825 3.58145 10.3919C3.58145 12.1655 4.28603 13.8666 5.54019 15.1207C6.79435 16.3749 8.49535 17.0794 10.269 17.0794C12.0427 17.0794 13.7437 16.3749 14.9978 15.1207Z" fill="white"/>
</svg>
