<svg width="28" height="56" viewBox="0 0 28 56" fill="none" xmlns="http://www.w3.org/2000/svg">
<path fill-rule="evenodd" clip-rule="evenodd" d="M8.57888 2.74551C10.0167 1.30774 11.9667 0.5 14 0.5C16.0334 0.5 17.9834 1.30774 19.4212 2.74551C20.859 4.18329 21.6667 6.13334 21.6667 8.16667V31.1562C23.7301 32.6063 25.3471 34.6175 26.3184 36.9625C27.4416 39.6742 27.6387 42.6808 26.879 45.5159C26.1194 48.351 24.4454 50.8562 22.1168 52.643C19.7883 54.4298 16.9352 55.3983 14 55.3983C11.0649 55.3983 8.2118 54.4298 5.88321 52.643C3.55462 50.8562 1.88068 48.351 1.12101 45.5159C0.361348 42.6808 0.558408 39.6742 1.68163 36.9625C2.65296 34.6175 4.26996 32.6063 6.33336 31.1562V8.16667C6.33336 6.13334 7.1411 4.18329 8.57888 2.74551ZM10.3334 21.5V32.25C10.3334 32.9645 9.95216 33.6248 9.33336 33.982C7.55404 35.0093 6.16341 36.5951 5.37715 38.4932C4.59089 40.3914 4.45295 42.496 4.98472 44.4806C5.51648 46.4652 6.68824 48.2188 8.31825 49.4696C9.94827 50.7203 11.9454 51.3983 14 51.3983C16.0546 51.3983 18.0518 50.7203 19.6818 49.4696C21.3118 48.2188 22.4836 46.4652 23.0153 44.4806C23.5471 42.496 23.4092 40.3914 22.6229 38.4932C21.8366 36.5951 20.446 35.0093 18.6667 33.982C18.0479 33.6248 17.6667 32.9645 17.6667 32.25V21.5H10.3334ZM17.6667 17.5H10.3334V8.16667C10.3334 7.19421 10.7197 6.26158 11.4073 5.57394C12.0949 4.88631 13.0276 4.5 14 4.5C14.9725 4.5 15.9051 4.88631 16.5927 5.57394C17.2804 6.26158 17.6667 7.19421 17.6667 8.16667V17.5Z" fill="url(#paint0_linear_18_59)"/>
<defs>
<linearGradient id="paint0_linear_18_59" x1="0.666687" y1="27.9491" x2="27.3334" y2="27.9491" gradientUnits="userSpaceOnUse">
<stop stop-color="#2AF598"/>
<stop offset="1" stop-color="#009EFD"/>
</linearGradient>
</defs>
</svg>
